<?xml version="1.0" encoding="utf-8"?>
<!-- Generator: Adobe Illustrator 25.2.3, SVG Export Plug-In . SVG Version: 6.00 Build 0)  -->
<svg version="1.1" id="a0cbf176-0a3a-47b5-8292-9d7a38e1c444"
	 xmlns="http://www.w3.org/2000/svg" xmlns:xlink="http://www.w3.org/1999/xlink" x="0px" y="0px" viewBox="0 0 732.6 638.9"
	 style="enable-background:new 0 0 732.6 638.9;" xml:space="preserve">
<style type="text/css">
	.st0{fill:#FFFFFF;}
	.st1{fill:#ADADAD;}
	.st2{fill:#8B73BF;}
	.st3{fill:#9F616A;}
	.st4{fill:#2F2E41;}
	.st5{fill:#2A313C;}
	.st6{fill:#404A59;}
	.st7{fill:#FFB7B7;}
	.st8{fill:#CF7255;}
	.st9{fill:#E2DCEF;}
</style>
<path class="st0" d="M121.5,222.4c-1.7,0.2-3.4,0.2-5.2,0.1c-0.6-0.1-1.2,0.4-1.2,1l-3.3,24.7c-0.3,1.8-1,3.5-2.1,4.9
	c-1.9,2.3-2.8,5.2-2.4,8.1v41.9c0,0-0.2,5.6,4.1,5.6c5.1,0.6,10.3,0.6,15.5,0c0,0,3.4-0.7,3.4-5.8v-41.3c0.5-2.9-0.2-5.9-2.1-8.2
	c-1.1-1.4-1.8-3.1-2.1-4.9l-3.4-25.2C122.6,222.8,122.1,222.4,121.5,222.4z"/>
<path class="st1" d="M119.1,310c-2.6,0-5.2-0.2-7.8-0.5c-1.2,0-2.3-0.4-3.1-1.3c-1.7-1.8-1.7-4.9-1.6-5.1l0-41.9
	c-0.4-3.1,0.6-6.2,2.6-8.6c1.1-1.3,1.7-2.9,2-4.5l3.3-24.7c0.1-1,1-1.7,2-1.6c1.7,0.1,3.3,0,5-0.1l0,0c1-0.1,1.8,0.6,1.9,1.6
	l3.4,25.2c0.2,1.6,0.9,3.2,1.9,4.5c2,2.4,2.8,5.6,2.3,8.7V303c0,5.7-4,6.5-4,6.5C124.4,309.8,121.8,310,119.1,310z M116.3,223.2
	c-0.2,0-0.4,0.1-0.4,0.4l-3.3,24.7c-0.3,1.9-1.1,3.7-2.3,5.2c-1.8,2.1-2.6,4.9-2.2,7.6l0,0.1v41.9c0,0.1-0.1,2.7,1.3,4.1
	c0.6,0.6,1.3,0.9,2.1,0.8l0.1,0c5.1,0.6,10.2,0.6,15.3,0c0.1,0,2.8-0.6,2.8-5.1l0-41.4c0.5-2.7-0.2-5.5-2-7.6
	c-1.2-1.5-1.9-3.3-2.2-5.2l-3.4-25.2c0-0.2-0.2-0.4-0.4-0.4C119.8,223.3,118.1,223.3,116.3,223.2
	C116.3,223.2,116.3,223.2,116.3,223.2L116.3,223.2z"/>
<path class="st2" d="M116.3,262h5.2c4.3,0,7.8,3.5,7.8,7.8v19.6c0,4.3-3.5,7.8-7.8,7.8h0h-5.2c-4.3,0-7.8-3.5-7.8-7.8l0,0v-19.6
	C108.5,265.5,112,262,116.3,262L116.3,262z"/>
<polygon class="st3" points="20.4,622.4 37.4,622.4 45.5,556.8 20.4,556.8 "/>
<path class="st4" d="M16.1,616.9l33.5,0h0c11.8,0,21.3,9.6,21.3,21.3v0.7l-54.8,0L16.1,616.9z"/>
<path class="st5" d="M9.7,388.2c0,0-7.4,8.3,4.8,40.8L12.4,607l39.5-0.8l8.7-86.9l15.8-126.8L9.7,388.2z"/>
<path class="st6" d="M90.1,412.8l-0.4-0.1C39,405,0.9,397.6,0.5,397.5L0,397.4l13.3-32.3c-0.1-3.4-3-98,2.5-125.2
	c5.3-26.3,30.4-30.6,33.3-31l2.9-9.5l36.3,18.9l6.3,21.8l1.3,59.6L90.1,412.8z"/>
<path class="st3" d="M111.9,290c-3.3,0-6.5,1.4-8.7,3.8H42.3l-22.3,4.8l3.7,28.3l79.4-17.1c4.3,4.9,11.8,5.4,16.8,1
	c4.9-4.3,5.4-11.8,1-16.8C118.5,291.5,115.3,290,111.9,290L111.9,290z"/>
<circle class="st3" cx="86.7" cy="174.6" r="29.4"/>
<path class="st4" d="M59,151.2l-1.4-2.9l7.2-3.6c0,0,7.9-12.9,22.2-9.2s20.7,5.8,20.7,5.8l7.1,3.6l-3.6,3.6l6.4,2.2l-4.3,2.1l5,2.9
	l-2.7,14.7c0,0-4.5-11.2-13.1-6.9s-24.3-2.2-24.3-2.2l-13.7,26.4c0,0-2.8-9.3-7.8-6.8C56.8,180.9,44,160.4,59,151.2z"/>
<path class="st6" d="M24,332.1l-7-20.7l-1.7-69.1l3-9.8c4.4-14.5,19.7-22.7,34.2-18.3c14.5,4.4,22.7,19.7,18.3,34.2
	c-0.2,0.7-0.4,1.4-0.7,2l-15.9,40.8l0.8,1.6l34.5-0.3l12.2,22L24,332.1z"/>
<path class="st7" d="M368.9,323.6c4.9-3.3,6.1-9.9,2.9-14.7c-0.3-0.5-0.7-1-1.2-1.5l17-33.7l-19.5,2.3L355,307.7
	c-4,4.4-3.6,11.1,0.8,15.1C359.4,326,364.9,326.4,368.9,323.6z"/>
<polygon class="st7" points="505.2,562.1 489.9,562.1 482.6,503 505.2,503 "/>
<path class="st4" d="M509.1,576.9l-49.4,0v-0.6c0-10.6,8.6-19.2,19.2-19.2h0l30.2,0L509.1,576.9z"/>
<polygon class="st7" points="421.5,562.1 406.2,562.1 398.9,503 421.5,503 "/>
<path class="st4" d="M421.7,576.9l-49.4,0v-0.6c0-10.6,8.6-19.2,19.2-19.2h0l30.2,0L421.7,576.9z"/>
<polygon class="st5" points="420.3,312.6 405.3,347.1 392.9,545.6 424.2,544.4 432.7,449.7 459,365.5 474.1,459.4 480.4,541.9 
	506.2,543 516.5,312.6 "/>
<path class="st8" d="M495.2,142.2l-43.4,1.1l-25.5,13.1l-1.4,96.6L409,319.7c0,0,99.4,6.8,113.1-3.2l-16.2-76.2l21.8-82.4
	L495.2,142.2z"/>
<path class="st8" d="M433,157.9l-4-2.7c0,0-16.8,5-21.7,27.4c0,0-3.8,11.2-5.5,18.9c-1.9,8.8-44,90-44,90l25.2,7.2l46.2-74.8
	L433,157.9z"/>
<path class="st7" d="M527,336c-3.8-4.5-3.2-11.2,1.3-15c0.5-0.4,1-0.8,1.5-1.1l-7.1-37l18.1,7.5l3.9,34c2.6,5.3,0.4,11.7-4.9,14.3
	C535.4,341,530.1,339.8,527,336z"/>
<path class="st8" d="M521.1,159.1l4.6-1.5c0,0,14.7,9.4,13.3,32.3c0,0,0.6,11.8,0,19.7c-0.6,9,7.5,98.7,7.5,98.7h-26.2l-11.2-81.2
	L521.1,159.1z"/>
<path class="st7" d="M505.9,101.6c0,16.6-13.5,30.1-30.1,30.1c-16.6,0-30.1-13.5-30.1-30.1c0-16.6,13.5-30.1,30.1-30.1l0,0
	c16.6,0,30.1,13.4,30.1,30C505.9,101.5,505.9,101.6,505.9,101.6z"/>
<path class="st4" d="M445.7,61.2c3.5-7.6,10.4-6.1,16.3-3.5c7.6-1.7,14.8-6.7,22.9-3.7c8,11.7,35,8.2,29.2,27.2
	c0,4.6,8.6,1.9,7.1,9.4c4.5,14.4-16.4,41.5-28.4,35.8c3-5.4,9.8-17.8-0.5-19.1c-22.2,20.6-2.3-39.3-30.1-21.8
	C453,93.9,440.4,69.6,445.7,61.2z"/>
<path class="st3" d="M532.2,339c5.4,1.1,10.7-2.4,11.8-7.8c0.1-0.6,0.2-1.2,0.2-1.8l75.6-71.2l-17-13.6l-69.1,74.4
	c-5.6,0.2-9.9,4.9-9.6,10.5C524.3,334.2,527.7,338.1,532.2,339L532.2,339z"/>
<path class="st9" d="M609.1,269.8l-14.7-17.2c-1.6-1.9-1.4-4.7,0.5-6.3c0.2-0.1,0.3-0.3,0.5-0.4l19.2-12c5.3-4.4,13.1-3.8,17.6,1.5
	c4.4,5.2,3.8,13.1-1.4,17.5l-14.8,17c-1.6,1.9-4.5,2.1-6.3,0.4C609.4,270.1,609.3,269.9,609.1,269.8L609.1,269.8z"/>
<polygon class="st3" points="569.6,621 551.1,621 542.3,549.7 569.6,549.7 "/>
<path class="st4" d="M574.3,638.9l-59.6,0v-0.8c0-12.8,10.4-23.2,23.2-23.2h0l36.4,0L574.3,638.9z"/>
<polygon class="st3" points="717.4,621 698.9,621 690.1,549.7 717.4,549.7 "/>
<path class="st4" d="M722.1,638.9l-59.6,0v-0.8c0-12.8,10.4-23.2,23.2-23.2h0l36.4,0L722.1,638.9z"/>
<path class="st5" d="M667.6,307.6l18.6-68.9l-24.2-13.6h-33.8l-13.1,14c0,0-21.9,15.3-16.6,32.2l8.6,38.5L594.1,371l-66,91.5
	l-15.6,89.9l61.5,16.1l66.5-130.9l32.2,145l60-3L712,403.8c0,0-5.9-53.5-36.8-87L667.6,307.6z"/>
<path class="st3" d="M706.1,368.5c3.9-3.9,4-10.2,0.1-14.2c-0.4-0.4-0.9-0.8-1.3-1.1l-14.5-97.6l-20.8,6.6l20.8,94
	c-2.9,4.7-1.4,10.9,3.4,13.8C697.7,372.4,702.8,371.8,706.1,368.5z"/>
<path class="st9" d="M694,270.9l-22.5,2.6c-2.5,0.3-4.7-1.5-5-3.9c0-0.2,0-0.4,0-0.7l0.7-22.6c-0.8-6.8,4.2-13,11-13.7
	c6.8-0.7,13,4.2,13.7,11l5.8,21.8c0.6,2.4-0.8,4.9-3.2,5.5C694.4,270.9,694.2,270.9,694,270.9L694,270.9z"/>
<path class="st4" d="M607.5,205.5v-29c0-21.5,17.4-38.9,38.9-38.9s38.9,17.4,38.9,38.9v29c0,2.9-2.3,5.2-5.2,5.2h-67.3
	C609.8,210.7,607.5,208.4,607.5,205.5z"/>
<circle class="st3" cx="638.4" cy="181.6" r="28.5"/>
<path class="st4" d="M598.3,178.8c0-17,13.8-30.7,30.8-30.8h5.8c17,0,30.7,13.8,30.8,30.8v0.6h-12.3l-4.2-11.7l-0.8,11.7H642
	l-2.1-5.9l-0.4,5.9h-41.2L598.3,178.8z"/>
<path class="st4" d="M635.6,214c-1.2-1.6-1.3-3.7-0.4-5.5c6.1-11.7,14.8-33.3,3.3-46.6l-0.8-1h33.2v49.8l-30.1,5.3
	c-0.3,0.1-0.6,0.1-0.9,0.1C638.1,216.2,636.5,215.4,635.6,214z"/>
<path class="st7" d="M330.6,240.5c-0.4,0.4-0.8,0.9-1.2,1.4l-54.1-1.3l-6.3-11.5l-18.6,7.2l9.2,21.5c1.5,3.6,5.2,5.7,9.1,5.2
	l61.1-7.4c3.9,5,11.1,5.8,16.1,1.9c5-3.9,5.8-11.1,1.9-16.1c-3.9-5-11.1-5.8-16.1-1.9C331.3,239.9,330.9,240.2,330.6,240.5
	L330.6,240.5z"/>
<polygon class="st7" points="154.4,568.8 172.1,568.8 180.6,500.3 154.4,500.3 "/>
<path class="st4" d="M149.8,563l35,0h0c12.3,0,22.3,10,22.3,22.3v0.7l-57.3,0L149.8,563z"/>
<polygon class="st7" points="315.8,568.4 332.1,561.5 313,495.1 288.8,505.4 "/>
<path class="st4" d="M309.3,564.9l32.2-13.8l0,0c11.3-4.8,24.4,0.4,29.3,11.8l0.3,0.7l-52.7,22.5L309.3,564.9z"/>
<polygon class="st7" points="240.8,255.4 242.1,276.2 204.5,280.2 165.2,284.4 176.7,252.8 "/>
<path class="st2" d="M242.1,262.9c-0.4-0.2-42.9-16.7-68.9-3.2l-0.6,0.3l-5.2-25.6l-3-55l19.3-9.1l5.3-11.9l36.2-2.1l7.4,10.2
	l25.3,8.3l-15.1,88.4L242.1,262.9z"/>
<path class="st2" d="M243.4,213.2l4.5-35.1l10.2-3.1l0.2,0.1c0.2,0.1,5.8,2.2,7.3,9.9c1.5,7.4,12.4,53.1,12.5,53.6l0.1,0.5
	l-25.7,10.3L243.4,213.2z"/>
<path class="st5" d="M302.5,556.4l34.3-7L282,398.3l-18.7-51.5c0,0-11.9-41.3-17.3-57.3l-3.2-21.5l-76.7,8.5
	c0,0-21.4,31.5-14.9,82.7L148.2,552l34.3,1.8l28.7-194.4l50.4,106.6c0,0,15.9,45.5,27.2,55.3L302.5,556.4z"/>
<path class="st7" d="M196.9,283.7c-0.6,0-1.2,0-1.8,0.1l-35.8-40.5l4.2-12.5l-18-8.7l-9.5,21.3c-1.6,3.5-0.6,7.7,2.3,10.2l46.9,39.8
	c-1,6.2,3.3,12.1,9.5,13.1c6.2,1,12.1-3.3,13.1-9.5c1-6.2-3.3-12.1-9.5-13.1C197.8,283.7,197.3,283.7,196.9,283.7L196.9,283.7z"/>
<path class="st2" d="M142.2,228l14-39.8c1.6-4.7,3.5-7.6,5.9-8.5c0.9-0.4,2-0.4,2.9,0l6.3,7.9l5.8,24.5l-14.9,35.1L142.2,228z"/>
<path class="st4" d="M234.8,148h-61.4c-2.6,0-4.8-2.1-4.8-4.8v-26.5c0-19.6,15.9-35.5,35.5-35.5s35.5,15.9,35.5,35.5l0,0v26.5
	C239.6,145.9,237.4,148,234.8,148z"/>
<circle class="st7" cx="211.4" cy="121.4" r="26"/>
<path class="st4" d="M248,119.4h-37.6L210,114l-1.9,5.4h-5.8l-0.8-10.7l-3.8,10.7h-11.2v-0.5c0-15.5,12.6-28,28.1-28.1h5.3
	c15.5,0,28,12.6,28.1,28.1L248,119.4z"/>
<path class="st4" d="M210.1,152.9c-0.3,0-0.6,0-0.8-0.1l-27.5-4.9v-45.4H212l-0.7,0.9c-10.4,12.2-2.6,31.9,3,42.6
	c0.8,1.6,0.7,3.5-0.4,5C213.1,152.2,211.6,152.9,210.1,152.9z"/>
<path class="st0" d="M539.5,262.2c-1.7,0.2-3.4,0.2-5.2,0.1c-0.6-0.1-1.2,0.4-1.2,1l-3.3,24.7c-0.3,1.8-1,3.5-2.1,4.9
	c-1.9,2.3-2.8,5.2-2.4,8.1v41.9c0,0-0.2,5.6,4.1,5.6c5.1,0.6,10.3,0.6,15.5,0c0,0,3.4-0.7,3.4-5.8v-41.3c0.5-2.9-0.2-5.9-2.1-8.2
	c-1.1-1.4-1.8-3.1-2.1-4.9l-3.4-25.2C540.6,262.6,540.1,262.1,539.5,262.2z"/>
<path class="st1" d="M537.1,349.7c-2.6,0-5.2-0.2-7.8-0.5c-1.2,0-2.3-0.4-3.1-1.3c-1.7-1.8-1.7-4.9-1.6-5.1l0-41.9
	c-0.4-3.1,0.6-6.2,2.6-8.6c1.1-1.3,1.7-2.9,2-4.5l3.3-24.7c0.1-1,1-1.7,2-1.6c1.7,0.1,3.3,0,5-0.1l0,0c1-0.1,1.8,0.6,1.9,1.6
	l3.4,25.2c0.2,1.6,0.9,3.2,1.9,4.5c2,2.4,2.8,5.6,2.3,8.7v41.2c0,5.7-4,6.5-4,6.5C542.4,349.5,539.8,349.7,537.1,349.7z M534.3,263
	c-0.2,0-0.4,0.1-0.4,0.4l-3.3,24.7c-0.3,1.9-1.1,3.7-2.3,5.2c-1.8,2.1-2.6,4.9-2.2,7.6l0,0.1v41.9c0,0.1-0.1,2.7,1.3,4.1
	c0.6,0.6,1.3,0.9,2.1,0.8l0.1,0c5.1,0.6,10.2,0.6,15.3,0c0.1,0,2.8-0.6,2.8-5.1l0-41.4c0.5-2.7-0.2-5.5-2-7.6
	c-1.2-1.5-1.9-3.3-2.2-5.2l-3.4-25.2c0-0.2-0.2-0.4-0.4-0.4C537.8,263.1,536.1,263.1,534.3,263C534.3,263,534.3,263,534.3,263z"/>
<path class="st2" d="M534.3,301.7h5.2c4.3,0,7.8,3.5,7.8,7.8l0,0v19.6c0,4.3-3.5,7.8-7.8,7.8l0,0h-5.2c-4.3,0-7.8-3.5-7.8-7.8l0,0
	v-19.6C526.5,305.3,530,301.7,534.3,301.7L534.3,301.7z"/>
<path class="st0" d="M362.5,228.2c-1.7,0.2-3.4,0.2-5.2,0.1c-0.6-0.1-1.2,0.4-1.2,1l-3.3,24.7c-0.3,1.8-1,3.5-2.1,4.9
	c-1.9,2.3-2.8,5.2-2.4,8.1v41.9c0,0-0.2,5.6,4.1,5.6c5.1,0.6,10.3,0.6,15.5,0c0,0,3.4-0.7,3.4-5.8v-41.3c0.5-2.9-0.2-5.9-2.1-8.2
	c-1.1-1.4-1.8-3.1-2.1-4.9l-3.4-25.2C363.6,228.6,363.1,228.1,362.5,228.2z"/>
<path class="st1" d="M360.1,315.7c-2.6,0-5.2-0.2-7.8-0.5c-1.2,0-2.3-0.4-3.1-1.3c-1.7-1.8-1.7-4.9-1.6-5.1l0-41.9
	c-0.4-3.1,0.6-6.2,2.6-8.6c1.1-1.3,1.7-2.9,2-4.5l3.3-24.7c0.1-1,1-1.7,2-1.6c1.7,0.1,3.3,0,5-0.1l0,0c1-0.1,1.8,0.6,1.9,1.6
	l3.4,25.2c0.2,1.6,0.9,3.2,1.9,4.5c2,2.4,2.8,5.6,2.3,8.7v41.2c0,5.7-4,6.5-4,6.5C365.4,315.5,362.8,315.7,360.1,315.7z M357.3,229
	c-0.2,0-0.4,0.1-0.4,0.4l-3.3,24.7c-0.3,1.9-1.1,3.7-2.3,5.2c-1.8,2.1-2.6,4.9-2.2,7.6l0,0.1v41.9c0,0.1-0.1,2.7,1.3,4.1
	c0.6,0.6,1.3,0.9,2.1,0.8l0.1,0c5.1,0.6,10.2,0.6,15.3,0c0.1,0,2.8-0.6,2.8-5.1l0-41.4c0.5-2.7-0.2-5.5-2-7.6
	c-1.2-1.5-1.9-3.3-2.2-5.2l-3.4-25.2c0-0.2-0.2-0.4-0.4-0.4C360.8,229.1,359.1,229.1,357.3,229C357.3,229,357.3,229,357.3,229z"/>
<path class="st2" d="M357.3,267.7h5.2c4.3,0,7.8,3.5,7.8,7.8v19.6c0,4.3-3.5,7.8-7.8,7.8h0h-5.2c-4.3,0-7.8-3.5-7.8-7.8v-19.6
	C349.5,271.3,353,267.7,357.3,267.7L357.3,267.7z"/>
<path class="st0" d="M332.5,192.2c-1.7,0.2-3.4,0.2-5.2,0.1c-0.6-0.1-1.2,0.4-1.2,1l-3.3,24.7c-0.3,1.8-1,3.5-2.1,4.9
	c-1.9,2.3-2.8,5.2-2.4,8.1v41.9c0,0-0.2,5.6,4.1,5.6c5.1,0.6,10.3,0.6,15.5,0c0,0,3.4-0.7,3.4-5.8v-41.3c0.5-2.9-0.2-5.9-2.1-8.2
	c-1.1-1.4-1.8-3.1-2.1-4.9l-3.4-25.2C333.6,192.6,333.1,192.1,332.5,192.2z"/>
<path class="st1" d="M330.1,279.7c-2.6,0-5.2-0.2-7.8-0.5c-1.2,0-2.3-0.4-3.1-1.3c-1.7-1.8-1.7-4.9-1.6-5.1l0-41.9
	c-0.4-3.1,0.6-6.2,2.6-8.6c1.1-1.3,1.7-2.9,2-4.5l3.3-24.7c0.1-1,1-1.7,2-1.6c1.7,0.1,3.3,0,5-0.1l0,0c1-0.1,1.8,0.6,1.9,1.6
	l3.4,25.2c0.2,1.6,0.9,3.2,1.9,4.5c2,2.4,2.8,5.6,2.3,8.7v41.2c0,5.7-4,6.5-4,6.5C335.4,279.5,332.8,279.7,330.1,279.7z M327.3,193
	c-0.2,0-0.4,0.1-0.4,0.4l-3.3,24.7c-0.3,1.9-1.1,3.7-2.3,5.2c-1.8,2.1-2.6,4.9-2.2,7.6l0,0.1v41.9c0,0.1-0.1,2.7,1.3,4.1
	c0.6,0.6,1.3,0.9,2.1,0.8l0.1,0c5.1,0.6,10.2,0.6,15.3,0c0.1,0,2.8-0.6,2.8-5.1l0-41.4c0.5-2.7-0.2-5.5-2-7.6
	c-1.2-1.5-1.9-3.3-2.2-5.2l-3.4-25.2c0-0.2-0.2-0.4-0.4-0.4C330.8,193.1,329.1,193.1,327.3,193C327.3,193,327.3,193,327.3,193z"/>
<path class="st2" d="M327.3,231.7h5.2c4.3,0,7.8,3.5,7.8,7.8v19.6c0,4.3-3.5,7.8-7.8,7.8h0h-5.2c-4.3,0-7.8-3.5-7.8-7.8v-19.6
	C319.5,235.3,323,231.7,327.3,231.7L327.3,231.7z"/>
</svg>
